<svg xmlns="http://www.w3.org/2000/svg" width="479" height="59" viewBox="0 0 479 59" fill="none"><path d="M58.7837 28.9782C58.7837 33.1524 57.9639 37.0456 56.3243 40.6578C54.6847 44.2701 52.4941 47.3873 49.7524 50.0095L55.5582 57.0735L47.6559 59L43.7854 54.3442C41.6351 55.5215 39.3504 56.4179 36.9313 57.0333C34.5122 57.6488 31.9856 57.9565 29.3515 57.9565C25.266 57.9565 21.4223 57.2073 17.8206 55.7088C14.2188 54.2104 11.1143 52.1635 8.5071 49.568C5.89987 46.9726 3.83021 43.8955 2.29813 40.3367C0.766042 36.778 0 32.9918 0 28.9782C0 24.9646 0.766042 21.1785 2.29813 17.6197C3.83021 14.061 5.89987 10.9839 8.5071 8.38844C11.1143 5.79297 14.2188 3.74603 17.8206 2.24762C21.4223 0.749206 25.266 0 29.3515 0C33.4371 0 37.2807 0.749206 40.8825 2.24762C44.4842 3.74603 47.6021 5.79297 50.2362 8.38844C52.8704 10.9839 54.9535 14.061 56.4855 17.6197C58.0176 21.1785 58.7837 24.9646 58.7837 28.9782ZM39.1891 37.2463L44.5111 43.668C46.2851 41.795 47.6693 39.6009 48.6638 37.0857C49.6584 34.5705 50.1556 31.868 50.1556 28.9782C50.1556 25.9814 49.618 23.1853 48.5429 20.5898C47.4677 17.9943 46.0029 15.7467 44.1482 13.8469C42.2936 11.9472 40.0895 10.4621 37.5361 9.39184C34.9826 8.32154 32.2544 7.7864 29.3515 7.7864C26.4486 7.7864 23.7339 8.32154 21.2073 9.39184C18.6807 10.4621 16.4901 11.9472 14.6354 13.8469C12.7808 15.7467 11.3159 17.9943 10.2408 20.5898C9.16563 23.1853 8.62806 25.9814 8.62806 28.9782C8.62806 31.9751 9.16563 34.7712 10.2408 37.3667C11.3159 39.9621 12.7808 42.1964 14.6354 44.0694C16.4901 45.9424 18.6807 47.4274 21.2073 48.5245C23.7339 49.6215 26.4486 50.1701 29.3515 50.1701C31.018 50.1701 32.6442 49.9961 34.23 49.6483C35.8158 49.3005 37.2807 48.7787 38.6247 48.083L31.2868 39.1728L39.1891 37.2463Z" fill="black"></path><path d="M116.922 33.0721C116.922 36.8717 116.358 40.31 115.229 43.3871C114.1 46.4642 112.501 49.073 110.431 51.2136C108.361 53.3542 105.835 55.0132 102.851 56.1905C99.8678 57.3678 96.5483 57.9565 92.8928 57.9565C85.5818 57.9565 79.7625 55.7089 75.4351 51.2136C71.1076 46.7184 68.9438 40.6712 68.9438 33.0721V0.882996H77.4106V33.0721C77.4106 38.263 78.8218 42.4104 81.644 45.5143C84.4663 48.6182 88.2159 50.1701 92.8928 50.1701C97.6234 50.1701 101.4 48.6182 104.222 45.5143C107.044 42.4104 108.456 38.263 108.456 33.0721V0.882996H116.922V33.0721Z" fill="black"></path><path d="M120.873 57.0735L144.258 0.882996H154.176L177.238 57.0735H168.045L161.514 40.6177H136.275L129.663 57.0735H120.873ZM139.097 33.634H158.772L148.935 8.99048L139.097 33.634Z" fill="black"></path><path d="M184.401 0.882996H192.707L224.155 42.5442V0.882996H232.138V57.0735H224.719L192.384 14.0476V57.0735H184.401V0.882996Z" fill="black"></path><path d="M239.919 8.3483V0.882996H288.059V8.3483H268.222V57.0735H259.756V8.3483H239.919Z" fill="black"></path><path d="M285.962 57.0735L309.347 0.882996H319.265L342.327 57.0735H333.134L326.603 40.6177H301.364L294.752 57.0735H285.962ZM304.186 33.634H323.861L314.024 8.99048L304.186 33.634Z" fill="black"></path><path d="M374.057 50.1701C377.283 50.1701 380.374 49.5145 383.33 48.2034C386.287 46.8923 388.787 45.0327 390.829 42.6245L396.393 48.2435C393.652 51.2404 390.278 53.6084 386.274 55.3476C382.269 57.0869 378.116 57.9565 373.815 57.9565C369.676 57.9565 365.792 57.2073 362.163 55.7089C358.535 54.2104 355.403 52.1635 352.769 49.568C350.135 46.9726 348.052 43.8955 346.52 40.3367C344.988 36.778 344.222 32.9918 344.222 28.9782C344.222 24.9111 344.988 21.1116 346.52 17.5796C348.052 14.0476 350.135 10.9839 352.769 8.38844C355.403 5.79297 358.535 3.74603 362.163 2.24762C365.792 0.749206 369.676 0 373.815 0C378.223 0 382.457 0.869615 386.515 2.60884C390.574 4.34807 393.92 6.7161 396.555 9.71293L390.91 15.4925C388.76 13.0308 386.179 11.1311 383.169 9.7932C380.159 8.45533 377.041 7.7864 373.815 7.7864C370.859 7.7864 368.09 8.32154 365.51 9.39184C362.929 10.4621 360.712 11.9472 358.857 13.8469C357.003 15.7467 355.538 17.9943 354.463 20.5898C353.387 23.1853 352.85 25.9814 352.85 28.9782C352.85 31.9751 353.387 34.7712 354.463 37.3667C355.538 39.9621 357.016 42.1964 358.898 44.0694C360.779 45.9424 363.023 47.4274 365.631 48.5245C368.238 49.6216 371.047 50.1701 374.057 50.1701Z" fill="black"></path><path d="M460.082 28.9782C460.082 32.9918 459.316 36.778 457.784 40.3367C456.252 43.8955 454.169 46.9726 451.535 49.568C448.901 52.1635 445.783 54.2104 442.181 55.7089C438.579 57.2073 434.736 57.9565 430.65 57.9565C426.565 57.9565 422.721 57.2073 419.119 55.7089C415.517 54.2104 412.413 52.1635 409.806 49.568C407.198 46.9726 405.129 43.8955 403.597 40.3367C402.065 36.778 401.299 32.9918 401.299 28.9782C401.299 24.9646 402.065 21.1785 403.597 17.6197C405.129 14.061 407.198 10.9839 409.806 8.38844C412.413 5.79297 415.517 3.74603 419.119 2.24762C422.721 0.749206 426.565 0 430.65 0C434.736 0 438.579 0.749206 442.181 2.24762C445.783 3.74603 448.901 5.79297 451.535 8.38844C454.169 10.9839 456.252 14.061 457.784 17.6197C459.316 21.1785 460.082 24.9646 460.082 28.9782ZM451.454 28.9782C451.454 25.9814 450.917 23.1853 449.842 20.5898C448.766 17.9943 447.302 15.7467 445.447 13.8469C443.592 11.9472 441.388 10.4621 438.835 9.39184C436.281 8.32154 433.553 7.7864 430.65 7.7864C427.747 7.7864 425.033 8.32154 422.506 9.39184C419.979 10.4621 417.789 11.9472 415.934 13.8469C414.079 15.7467 412.615 17.9943 411.539 20.5898C410.464 23.1853 409.927 25.9814 409.927 28.9782C409.927 31.9751 410.464 34.7712 411.539 37.3667C412.615 39.9621 414.079 42.1964 415.934 44.0694C417.789 45.9424 419.979 47.4274 422.506 48.5245C425.033 49.6216 427.747 50.1701 430.65 50.1701C433.553 50.1701 436.281 49.6216 438.835 48.5245C441.388 47.4274 443.592 45.9424 445.447 44.0694C447.302 42.1964 448.766 39.9621 449.842 37.3667C450.917 34.7712 451.454 31.9751 451.454 28.9782Z" fill="black"></path><path d="M479 58V42H463V58H479Z" fill="#FF6A14"></path></svg>